# xmcd CD database file
#
# Track frame offsets:
#	150
#	24454
#	52465
#	80744
#	112274
#	137967
#	161670
#
# Disc length: 2531 seconds
#
# Revision: 0
# Processed by: cddbd v1.4PL0 Copyright (c) Steve Scherf et al.
# Submitted via: CDex 1.50beta10
#
DISCID=6909e107
DTITLE=Eric Gale - Part of you
DYEAR=1979
DGENRE=Jazz
TTITLE0=Let me slip it to you
TTITLE1=Part of you
TTITLE2=Trio
TTITLE3=Lookin' good
TTITLE4=Nezumi
TTITLE5=Holding on to love
TTITLE6=Part of you (alt)
EXTD=YEAR: 1979
EXTT0=
EXTT1=
EXTT2=
EXTT3=
EXTT4=
EXTT5=
EXTT6=
PLAYORDER=
